<?xml version="1.0" standalone="no"?>
<!DOCTYPE svg PUBLIC "-//W3C//DTD SVG 20010904//EN"
 "http://www.w3.org/TR/2001/REC-SVG-20010904/DTD/svg10.dtd">
<svg version="1.0" xmlns="http://www.w3.org/2000/svg"
 width="897.000000pt" height="298.000000pt" viewBox="0 0 897.000000 298.000000"
 preserveAspectRatio="xMidYMid meet">

<g transform="translate(0.000000,298.000000) scale(0.100000,-0.100000)"
fill="#B70909" stroke="none">
<path d="M1411 2790 c-18 -4 -49 -24 -69 -43 -68 -68 -50 -180 36 -222 l41
-20 1 -312 c0 -172 -2 -313 -5 -313 -15 0 -85 42 -120 73 -46 39 -89 114 -99
168 -6 34 -4 37 21 44 68 17 113 75 113 145 0 85 -61 142 -150 142 -91 0 -154
-61 -152 -148 0 -52 38 -110 82 -125 24 -9 28 -16 33 -64 11 -112 66 -184 231
-305 l78 -58 62 45 c175 128 234 202 243 303 6 58 8 61 45 82 56 32 82 78 76
137 -3 26 -13 59 -24 74 -94 125 -308 42 -279 -109 8 -45 58 -102 99 -112 24
-6 32 -14 34 -35 8 -65 -82 -188 -170 -233 -26 -13 -50 -24 -53 -24 -3 0 -5
140 -5 311 l0 310 34 14 c92 39 122 158 58 229 -37 40 -104 60 -161 46z m83
-64 c42 -17 64 -71 45 -108 -32 -64 -102 -77 -150 -29 -45 45 -37 105 19 135
34 19 45 19 86 2z m-247 -358 c26 -24 31 -82 10 -109 -34 -44 -101 -51 -141
-14 -47 44 -30 124 34 148 25 10 73 -2 97 -25z m523 17 c58 -30 67 -90 21
-136 -20 -20 -40 -29 -61 -29 -85 0 -126 97 -64 151 36 32 63 35 104 14z"/>
<path d="M393 2320 c-106 -48 -112 -195 -11 -254 36 -22 112 -25 146 -7 18 10
43 -10 250 -207 127 -119 231 -220 231 -224 2 -15 -80 -33 -154 -33 -81 0
-154 23 -196 61 -15 14 -15 17 3 52 47 92 -29 202 -142 202 -83 0 -141 -52
-148 -132 -3 -44 0 -59 20 -88 40 -59 117 -85 181 -61 20 8 31 4 60 -20 87
-72 190 -90 382 -67 l110 13 11 65 c7 36 12 112 13 170 1 116 -12 159 -68 227
-28 34 -30 41 -25 97 4 50 2 67 -15 94 -61 96 -193 96 -264 0 -44 -60 -14
-168 57 -202 43 -20 108 -21 146 -1 27 14 29 14 53 -15 56 -66 74 -219 35
-294 l-15 -29 -224 213 c-123 117 -227 216 -231 219 -4 4 -1 25 7 48 18 53 11
91 -26 137 -47 56 -114 69 -186 36z m116 -55 c90 -46 31 -182 -68 -160 -70 15
-92 95 -42 146 33 32 67 37 110 14z m466 -70 c54 -54 16 -145 -60 -145 -48 0
-74 15 -90 53 -15 37 -4 80 28 102 34 24 94 19 122 -10z m-382 -373 c29 -32
25 -85 -8 -117 -74 -75 -200 26 -140 113 31 43 111 45 148 4z"/>
<path d="M2359 2307 c-61 -41 -74 -83 -57 -192 2 -15 -54 -74 -219 -233 -122
-116 -226 -212 -231 -212 -14 0 -36 88 -35 143 1 67 20 130 52 167 l26 32 53
-17 c44 -15 60 -16 92 -6 139 41 147 222 12 278 -110 46 -238 -63 -204 -174
11 -35 9 -39 -33 -95 -61 -81 -72 -136 -56 -296 7 -67 14 -129 17 -136 7 -19
45 -25 205 -32 156 -8 197 1 279 61 47 34 50 35 96 25 41 -10 52 -8 92 12 57
29 83 63 89 119 8 74 -57 147 -138 156 -116 12 -205 -109 -153 -208 14 -28 14
-32 -2 -50 -28 -31 -118 -59 -192 -59 -69 0 -137 14 -147 30 -3 5 97 106 222
225 188 179 230 215 247 210 87 -29 172 -2 206 66 25 48 25 84 1 129 -41 79
-149 106 -222 57z m152 -63 c53 -57 11 -144 -69 -144 -41 1 -63 13 -80 47 -27
49 -1 107 53 121 41 11 70 4 96 -24z m-443 -59 c31 -37 29 -80 -7 -116 -47
-47 -125 -31 -151 31 -37 90 92 160 158 85z m375 -359 c35 -32 42 -67 23 -104
-30 -57 -103 -66 -152 -17 -34 34 -32 79 5 116 38 37 87 39 124 5z"/>
<path d="M4676 1953 l-39 -4 7 -52 c3 -29 6 -181 6 -339 l0 -288 66 0 66 0 -7
115 c-6 100 -5 115 8 115 17 0 112 -116 154 -187 l25 -43 74 0 c41 0 74 4 74
9 0 16 -111 165 -163 218 -31 32 -47 56 -42 61 6 5 36 30 67 56 31 26 68 63
83 82 l26 34 -74 0 -74 0 -26 -37 c-36 -55 -112 -133 -127 -133 -11 0 -12 38
-6 200 l7 200 -33 -2 c-18 -1 -50 -3 -72 -5z"/>
<path d="M6548 1924 c-75 -40 -28 -146 57 -130 40 8 65 38 65 78 0 58 -63 85
-122 52z"/>
<path d="M3035 1585 l0 -315 62 0 61 0 -4 93 c-2 50 -6 159 -8 241 l-5 148 43
-74 c23 -41 89 -140 145 -219 57 -79 108 -154 114 -166 9 -20 18 -23 71 -23
l61 0 0 315 0 315 -62 0 -62 0 4 -102 c10 -240 14 -360 10 -356 -3 2 -19 31
-36 64 -17 32 -73 120 -124 194 -51 74 -100 150 -109 168 -16 32 -17 32 -89
32 l-72 0 0 -315z"/>
<path d="M5930 1595 c0 -168 0 -308 0 -312 0 -5 67 -8 148 -8 206 1 293 31
337 116 45 85 -8 197 -101 215 -40 7 -44 21 -9 30 14 3 38 22 55 40 25 29 30
43 30 85 0 44 -4 55 -33 84 -43 43 -103 55 -282 55 l-145 0 0 -305z m290 200
c50 -26 53 -100 5 -131 -15 -10 -55 -19 -94 -22 l-68 -5 -8 76 c-3 42 -4 81 0
87 10 16 132 12 165 -5z m34 -269 c54 -35 55 -101 3 -140 -20 -15 -47 -21
-112 -24 l-85 -5 0 98 0 98 84 -5 c57 -3 92 -10 110 -22z"/>
<path d="M6834 1863 c-39 -4 -42 -6 -48 -41 -3 -20 -6 -52 -6 -69 0 -31 -2
-33 -35 -33 -35 0 -35 0 -35 -45 0 -45 0 -45 35 -45 l35 0 0 -125 c0 -138 10
-178 54 -212 32 -26 93 -37 151 -29 42 7 43 8 47 49 l3 42 -45 -3 c-27 -2 -52
2 -63 10 -24 18 -36 80 -37 186 l0 82 65 0 65 0 0 45 0 45 -60 0 -60 0 0 75
c0 54 -3 75 -12 73 -7 -1 -32 -3 -54 -5z"/>
<path d="M8570 1787 c-14 -7 -32 -27 -40 -44 -10 -22 -20 -31 -30 -27 -56 21
-124 27 -187 17 -104 -18 -163 -76 -163 -161 0 -38 5 -50 40 -84 l39 -40 -27
-23 c-32 -28 -37 -92 -9 -123 17 -19 17 -20 -10 -37 -42 -27 -52 -46 -53 -91
0 -89 74 -129 236 -129 95 1 105 3 170 35 85 43 114 81 114 152 0 92 -68 128
-243 128 -88 0 -130 14 -135 44 -5 26 16 36 60 29 57 -9 143 6 180 30 70 48
96 124 63 187 -14 27 -14 30 4 40 11 5 33 10 49 10 28 0 31 4 37 41 5 30 3 44
-6 50 -20 12 -60 11 -89 -4z m-131 -143 c47 -39 42 -102 -10 -129 -73 -38
-151 -2 -151 70 0 79 96 114 161 59z m54 -396 c30 -12 46 -52 30 -77 -27 -42
-62 -56 -148 -56 -74 0 -86 3 -109 24 -31 29 -34 69 -7 102 17 23 24 24 112
21 52 -2 106 -8 122 -14z"/>
<path d="M4227 1730 c-27 -5 -50 -10 -52 -12 -1 -2 -6 -22 -10 -45 l-6 -41 43
10 c24 5 78 8 121 6 87 -4 107 -17 107 -69 0 -25 -3 -27 -62 -33 -144 -16
-217 -65 -225 -153 -5 -42 -1 -53 22 -81 46 -55 157 -67 236 -26 30 15 33 15
44 0 9 -11 28 -16 67 -16 l55 0 -9 58 c-6 31 -8 103 -5 160 6 122 -2 165 -38
202 -44 46 -157 62 -288 40z m205 -301 c2 -33 -1 -54 -10 -62 -19 -16 -116
-21 -141 -8 -22 12 -29 54 -12 79 11 18 79 41 123 42 l36 0 4 -51z"/>
<path d="M6561 1733 l-54 -4 7 -52 c3 -29 6 -132 6 -229 l0 -178 63 0 62 0 0
235 c0 203 -2 235 -15 233 -8 -1 -39 -3 -69 -5z"/>
<path d="M7828 1726 c-21 -7 -49 -21 -63 -30 -32 -21 -35 -20 -35 9 0 24 -1
25 -62 18 -35 -3 -64 -7 -65 -8 -2 -1 2 -28 8 -59 6 -32 9 -132 7 -222 l-3
-164 68 0 67 0 0 171 0 170 35 15 c49 20 108 18 136 -5 23 -19 24 -23 24 -185
l0 -166 63 0 62 0 0 185 c0 207 -6 232 -62 261 -43 22 -134 28 -180 10z"/>
<path d="M3640 1726 c0 -2 32 -73 71 -158 114 -247 131 -318 88 -372 -24 -30
-69 -56 -99 -56 -21 0 -26 -22 -13 -68 5 -22 9 -23 52 -17 105 16 149 63 197
212 14 43 59 160 100 260 41 100 74 187 74 192 0 7 -25 11 -63 11 l-63 0 -22
-87 c-55 -213 -71 -267 -75 -253 -3 8 -14 51 -26 95 -12 44 -32 116 -45 160
l-24 80 -76 3 c-42 2 -76 1 -76 -2z"/>
<path d="M5157 1723 c-18 -5 -19 -16 -15 -176 5 -206 14 -237 80 -267 24 -11
59 -20 79 -20 46 0 133 26 149 45 15 18 30 10 30 -16 0 -17 7 -19 61 -19 l62
0 -7 31 c-3 17 -6 121 -6 231 l0 199 -62 -3 -63 -3 -3 -172 -2 -171 -32 -11
c-39 -14 -93 -14 -118 -1 -31 16 -40 67 -40 216 l0 144 -47 -1 c-27 -1 -56 -3
-66 -6z"/>
<path d="M7097 1723 c-18 -5 -19 -16 -15 -176 5 -206 14 -237 80 -267 24 -11
59 -20 79 -20 46 0 133 26 149 45 15 18 30 10 30 -16 0 -17 7 -19 61 -19 l62
0 -7 31 c-3 17 -6 121 -6 231 l0 199 -62 -3 -63 -3 -3 -172 -2 -171 -32 -11
c-39 -14 -93 -14 -118 -1 -31 16 -40 67 -40 216 l0 144 -47 -1 c-27 -1 -56 -3
-66 -6z"/>
<path d="M1386 1676 c-90 -33 -136 -96 -136 -186 0 -198 265 -270 379 -104 28
41 38 117 22 166 -13 39 -61 92 -103 114 -43 22 -117 27 -162 10z m134 -64
c69 -34 99 -117 65 -182 -48 -92 -173 -105 -244 -25 -26 29 -31 44 -31 84 0
106 113 172 210 123z"/>
<path d="M1932 1449 c-152 -14 -146 -10 -160 -123 -24 -191 -10 -271 59 -350
39 -44 41 -48 29 -76 -24 -59 10 -144 70 -175 42 -21 118 -19 158 5 96 59 94
191 -4 247 -46 27 -90 29 -141 8 -33 -14 -38 -14 -54 1 -9 8 -27 39 -40 67
-28 64 -30 172 -6 230 l17 39 227 -217 c180 -171 227 -222 224 -239 -11 -68
-5 -122 18 -155 89 -124 301 -40 276 110 -16 92 -131 147 -225 105 -11 -4 -83
58 -243 210 -125 118 -227 220 -227 224 0 16 83 33 155 33 75 0 158 -28 190
-63 15 -17 15 -20 0 -44 -29 -44 -16 -120 27 -163 110 -110 303 -9 259 136
-23 78 -122 129 -194 102 -26 -10 -33 -8 -67 19 -87 69 -170 85 -348 69z m512
-154 c39 -26 51 -67 31 -109 -30 -63 -120 -70 -160 -12 -54 76 50 172 129 121z
m-373 -384 c32 -33 36 -58 14 -101 -21 -41 -73 -56 -119 -35 -61 29 -71 104
-19 145 38 30 88 26 124 -9z m443 -50 c30 -26 38 -58 22 -96 -17 -39 -42 -55
-89 -55 -65 0 -108 73 -76 131 24 45 101 56 143 20z"/>
<path d="M726 1431 c-27 -11 -66 -34 -87 -51 -35 -28 -41 -29 -84 -21 -106 20
-185 -41 -185 -141 0 -58 30 -104 83 -128 73 -34 140 -20 189 38 37 44 43 92
19 146 l-19 45 37 24 c21 14 55 30 77 36 74 21 214 10 247 -18 4 -4 -95 -104
-220 -222 -168 -159 -232 -213 -247 -211 -116 18 -160 5 -204 -59 -20 -28 -23
-43 -20 -87 7 -80 65 -132 150 -132 61 0 108 29 136 82 23 44 23 59 1 136 -2
7 100 112 226 232 l230 219 15 -32 c9 -20 14 -64 15 -117 0 -77 -3 -90 -31
-140 -34 -59 -36 -60 -114 -40 -93 23 -184 -45 -184 -140 0 -151 223 -203 287
-67 18 38 22 103 8 126 -7 11 1 27 29 58 21 24 46 65 54 90 19 55 21 189 5
297 -13 88 -1 83 -219 91 -129 5 -150 3 -194 -14z m-140 -152 c59 -55 14 -149
-71 -149 -38 0 -85 46 -85 84 0 83 95 123 156 65z m383 -365 c81 -68 -5 -187
-102 -143 -23 10 -38 32 -50 70 -3 9 1 29 10 46 27 56 93 69 142 27z m-444
-59 c24 -24 29 -40 25 -80 -7 -68 -116 -91 -162 -34 -68 82 62 190 137 114z"/>
<path d="M1363 1162 c-158 -118 -209 -186 -220 -296 -5 -47 -9 -54 -41 -72
-133 -72 -76 -268 78 -268 88 0 150 60 150 146 0 62 -30 106 -91 131 -48 21
-49 22 -43 57 17 94 103 193 198 230 l26 10 0 -314 0 -314 -24 -6 c-14 -3 -38
-20 -55 -36 -54 -54 -54 -143 0 -198 60 -61 150 -64 218 -6 79 66 54 197 -45
239 l-34 14 0 310 c0 171 2 311 5 311 3 0 27 -11 53 -24 120 -61 221 -247 144
-266 -40 -9 -91 -58 -103 -100 -24 -79 24 -157 111 -180 98 -26 190 44 190
145 0 49 -30 95 -78 123 -37 21 -39 24 -45 82 -7 78 -39 133 -120 204 -71 63
-171 136 -185 136 -6 0 -46 -26 -89 -58z m-124 -428 c64 -54 26 -149 -59 -149
-53 0 -90 35 -90 84 1 82 86 119 149 65z m552 -3 c35 -35 38 -77 9 -114 -41
-52 -126 -42 -154 18 -43 91 73 168 145 96z m-292 -326 c88 -45 31 -185 -65
-161 -73 19 -96 95 -45 147 33 32 67 37 110 14z"/>
</g>
</svg>
