<?xml version="1.0" standalone="no"?>
<!DOCTYPE svg PUBLIC "-//W3C//DTD SVG 20010904//EN"
 "http://www.w3.org/TR/2001/REC-SVG-20010904/DTD/svg10.dtd">
<svg version="1.0" xmlns="http://www.w3.org/2000/svg"
 width="1643.000000pt" height="654.000000pt" viewBox="0 0 1643.000000 654.000000"
 preserveAspectRatio="xMidYMid meet">

<g transform="translate(0.000000,654.000000) scale(0.100000,-0.100000)"
fill="#1293E4" stroke="none">
<path d="M3783 6025 c-72 -16 -183 -55 -183 -64 0 -4 23 -15 50 -25 66 -24
157 -84 197 -130 54 -60 75 -112 80 -195 l5 -76 -108 -53 c-431 -212 -790
-501 -1055 -852 -230 -303 -382 -670 -445 -1072 -22 -136 -25 -489 -5 -613 50
-328 119 -552 253 -824 451 -914 1454 -1407 2593 -1274 154 18 337 54 420 83
193 67 399 79 507 28 68 -31 98 -73 98 -134 0 -50 -26 -86 -83 -116 -59 -31
-213 -31 -307 0 -35 12 -66 20 -68 18 -6 -7 94 -89 161 -134 95 -61 166 -85
257 -86 66 -1 84 3 143 32 125 62 191 179 191 337 0 78 -3 97 -26 141 -32 60
-94 119 -157 147 -34 16 -73 22 -148 25 -57 2 -103 7 -103 11 0 4 18 25 41 46
117 113 236 316 264 450 40 191 -10 370 -140 500 -87 87 -171 127 -279 133
-69 4 -89 1 -129 -18 -106 -50 -157 -159 -157 -336 l0 -105 33 25 c45 34 84
48 139 47 59 0 96 -19 141 -72 67 -78 73 -189 15 -307 -89 -180 -389 -364
-698 -429 -119 -25 -363 -24 -480 1 -229 49 -427 152 -542 282 -144 161 -246
356 -283 544 -23 113 -16 286 15 385 73 234 258 427 503 527 60 24 65 31 42
62 -15 20 -21 96 -7 96 4 0 17 -16 30 -35 31 -48 95 -92 161 -112 44 -12 83
-15 188 -10 l132 5 -20 -46 c-11 -25 -22 -66 -25 -91 l-6 -46 67 103 c37 57
69 101 71 100 2 -2 -8 -34 -21 -71 -14 -37 -25 -82 -25 -99 0 -29 1 -29 43 29
54 73 106 115 191 153 93 42 104 72 64 177 -71 192 -223 353 -423 449 -172 83
-324 103 -491 64 -110 -25 -190 -29 -379 -16 -111 8 -139 6 -190 -8 -169 -50
-315 -181 -419 -378 -103 -193 -136 -439 -104 -773 11 -104 13 -118 15 -70 9
206 49 395 113 533 40 84 104 182 120 182 5 0 -9 -39 -30 -87 -87 -198 -125
-393 -116 -603 14 -326 134 -619 368 -897 69 -82 181 -193 237 -234 98 -72
-66 0 -203 90 -406 264 -654 635 -744 1106 -13 69 -17 143 -16 320 0 212 2
240 28 352 92 419 301 766 605 1011 262 211 569 338 926 383 143 18 449 13
593 -9 l123 -19 -8 46 c-14 82 -9 174 11 219 10 23 22 42 26 42 3 0 12 -27 18
-61 16 -89 48 -146 116 -214 235 -231 734 -257 1131 -58 39 19 72 37 74 39 6
6 -92 178 -156 272 -85 126 -137 189 -246 301 -359 367 -816 556 -1425 591
-84 5 -201 6 -260 3 l-107 -5 -18 31 c-32 56 -116 150 -175 197 -75 60 -200
120 -287 139 -86 18 -219 18 -302 0z m1052 -1075 c28 -10 91 -35 140 -57 50
-22 99 -43 110 -47 18 -6 17 -9 -10 -32 -110 -93 -194 -88 -450 29 -104 48
-197 77 -250 77 -51 1 -8 16 95 34 163 27 279 26 365 -4z m1433 -31 c39 -14
55 -53 37 -96 -20 -48 -65 -57 -109 -22 -41 32 -31 99 17 119 12 5 22 9 23 9
1 1 15 -4 32 -10z m-1154 -1655 c32 -31 11 -84 -32 -84 -35 0 -52 16 -52 50 0
14 5 31 12 38 17 17 54 15 72 -4z m-694 -179 c-35 -92 -81 -114 -261 -126 -75
-4 -156 -15 -180 -24 -24 -8 -50 -15 -58 -15 -25 0 111 99 188 138 74 37 110
43 283 50 36 2 37 1 28 -23z"/>
<path d="M3500 5653 c-511 -81 -995 -303 -1369 -629 l-68 -59 -7 -80 c-14
-166 24 -498 88 -770 13 -55 26 -93 30 -85 3 8 21 58 40 110 223 620 611 1076
1217 1435 137 81 145 90 69 78z"/>
<path d="M1871 4781 c-115 -115 -229 -288 -351 -531 l-60 -120 0 -153 c0 -422
112 -801 339 -1143 43 -66 104 -151 135 -189 77 -94 290 -319 327 -345 l29
-22 -21 54 c-82 201 -159 493 -185 697 -20 162 -20 456 1 609 9 68 15 136 13
150 -3 15 -26 94 -52 175 -83 264 -123 527 -114 753 3 68 3 124 1 124 -1 0
-30 -27 -62 -59z"/>
<path d="M8003 4649 c-49 -24 -98 -76 -122 -128 -14 -32 -16 -141 -19 -1073
l-3 -1038 226 0 225 0 0 781 c0 429 4 778 9 775 4 -3 215 -354 467 -780 l459
-776 238 0 237 0 0 1130 0 1130 -225 0 -225 0 -2 -778 -3 -779 -460 776 -461
776 -149 3 c-136 2 -154 0 -192 -19z"/>
<path d="M10060 4500 l0 -170 215 0 215 0 0 103 c0 82 -4 110 -20 141 -39 78
-85 94 -267 95 l-143 1 0 -170z"/>
<path d="M10840 3540 l0 -1130 215 0 215 0 0 330 c0 223 4 337 11 354 14 31
60 50 96 41 63 -15 121 -99 292 -418 l164 -307 259 0 c142 0 258 2 258 4 0 3
-137 238 -305 522 l-305 518 38 41 c21 22 135 144 252 270 117 127 236 254
264 283 l50 52 -260 0 -260 0 -269 -310 c-149 -170 -273 -310 -277 -310 -5 0
-8 226 -8 503 0 295 -4 516 -10 537 -13 49 -66 109 -114 131 -33 15 -66 19
-173 19 l-133 0 0 -1130z"/>
<path d="M12550 4500 l0 -170 215 0 215 0 0 103 c0 82 -4 110 -20 141 -39 78
-85 94 -267 95 l-143 1 0 -170z"/>
<path d="M13390 3541 l0 -1131 220 0 220 0 -2 1053 -3 1052 -27 46 c-15 25
-46 59 -70 75 -42 28 -46 29 -190 32 l-148 3 0 -1130z"/>
<path d="M14650 4175 c-253 -52 -407 -195 -459 -427 l-9 -38 217 0 216 0 19
34 c39 73 181 110 340 88 138 -18 206 -68 206 -152 0 -108 -89 -150 -411 -194
-370 -51 -553 -173 -620 -411 -21 -75 -18 -256 5 -325 47 -139 127 -237 243
-298 286 -151 806 -78 1027 143 70 70 124 164 157 275 22 71 23 95 27 482 3
350 1 416 -13 470 -50 197 -213 316 -492 357 -98 15 -373 12 -453 -4z m530
-1129 c-14 -88 -37 -142 -86 -195 -71 -79 -172 -121 -294 -121 -90 0 -138 16
-181 59 -84 83 -78 240 12 315 50 42 108 65 259 102 74 18 171 46 215 62 l80
30 3 -92 c2 -50 -2 -122 -8 -160z"/>
<path d="M10060 3290 l0 -880 215 0 215 0 0 808 c0 765 -1 809 -19 848 -37 81
-99 104 -283 104 l-128 0 0 -880z"/>
<path d="M12550 3290 l0 -880 215 0 215 0 0 808 c0 765 -1 809 -19 848 -37 81
-99 104 -283 104 l-128 0 0 -880z"/>
<path d="M1292 3567 c-39 -184 -53 -299 -59 -498 -10 -340 36 -624 153 -932
19 -49 34 -92 34 -97 0 -5 -19 -11 -42 -15 -148 -24 -283 -90 -384 -190 -109
-107 -153 -202 -161 -346 -6 -111 5 -175 49 -263 67 -138 156 -217 291 -258
102 -31 228 -23 318 19 75 35 138 95 170 162 32 66 32 175 0 258 l-23 62 -51
-20 c-71 -28 -170 -28 -225 0 -142 72 -107 290 57 364 62 28 202 34 292 13
163 -38 308 -116 749 -406 173 -114 361 -235 416 -268 580 -348 1128 -497
1669 -452 83 6 168 15 190 20 37 7 36 8 -25 9 -106 2 -297 20 -425 41 -597 96
-1102 355 -1485 764 -157 168 -261 303 -365 474 -46 77 -60 90 -180 179 -463
345 -768 800 -909 1355 l-33 127 -21 -102z"/>
<path d="M12424 1822 c-134 -47 -200 -162 -192 -331 7 -148 64 -235 185 -281
117 -44 254 -12 334 78 106 121 101 338 -11 465 -64 73 -214 106 -316 69z
m186 -107 c92 -47 125 -205 70 -332 -44 -101 -191 -125 -271 -44 -46 45 -62
102 -57 196 7 132 62 195 170 195 33 0 72 -7 88 -15z"/>
<path d="M13814 1824 c-60 -21 -119 -77 -151 -142 -25 -51 -28 -67 -28 -162 0
-99 2 -110 33 -172 48 -98 123 -148 232 -155 76 -5 123 11 166 57 35 36 44 38
44 6 0 -28 33 -56 67 -56 l23 0 0 170 0 170 -125 0 -125 0 0 -33 c0 -48 25
-67 88 -67 29 0 52 -2 52 -5 0 -17 -34 -83 -52 -102 -32 -34 -90 -47 -149 -33
-102 25 -153 131 -131 273 18 120 64 160 176 155 68 -4 69 -4 111 -52 38 -44
47 -49 95 -54 l52 -5 -7 34 c-11 53 -47 111 -84 136 -75 50 -203 67 -287 37z"/>
<path d="M7901 1804 c-20 -26 -21 -38 -21 -315 l0 -289 60 0 60 0 2 222 3 223
130 -220 131 -220 67 -3 67 -3 0 316 0 315 -60 0 -60 0 0 -221 c0 -121 -4
-218 -9 -215 -4 3 -65 102 -135 221 l-128 215 -43 0 c-35 0 -48 -5 -64 -26z"/>
<path d="M8564 1816 c-18 -14 -19 -31 -22 -315 l-3 -301 61 0 60 0 0 315 0
315 -38 0 c-21 0 -47 -6 -58 -14z"/>
<path d="M8830 1810 c-19 -19 -20 -33 -20 -315 l0 -295 60 0 60 0 0 125 c0
113 2 125 19 135 50 26 73 7 191 -157 l73 -103 73 0 73 0 -134 184 c-74 101
-135 188 -135 192 0 5 55 64 122 131 l123 123 -74 0 -74 0 -128 -132 -128
-133 -1 133 0 132 -40 0 c-27 0 -47 -7 -60 -20z"/>
<path d="M9467 1812 c-15 -16 -17 -53 -17 -315 l0 -297 60 0 60 0 0 315 0 315
-43 0 c-30 0 -49 -6 -60 -18z"/>
<path d="M10175 1805 l-25 -24 0 -291 0 -290 220 0 220 0 0 55 0 55 -160 0
-160 0 0 260 0 260 -35 0 c-25 0 -44 -8 -60 -25z"/>
<path d="M10947 1813 c-8 -10 -61 -144 -115 -298 -55 -154 -103 -288 -107
-297 -6 -16 0 -18 59 -18 l65 0 19 63 20 62 129 3 129 3 20 -63 20 -63 62 -3
c34 -2 62 -1 62 2 0 3 -49 144 -110 312 -60 169 -110 309 -110 311 0 1 -29 3
-63 3 -48 0 -68 -4 -80 -17z m118 -243 c25 -74 43 -135 41 -137 -2 -2 -44 -2
-93 -1 l-89 3 44 138 c24 77 46 137 48 134 2 -2 25 -64 49 -137z"/>
<path d="M11480 1810 c-19 -19 -20 -33 -20 -315 l0 -295 55 0 55 0 0 258 c0
160 4 251 10 241 5 -8 32 -107 60 -220 28 -112 55 -221 61 -241 l10 -38 63 0
63 0 66 258 65 257 1 -257 1 -258 60 0 60 0 0 315 0 315 -93 0 -94 0 -58 -227
c-32 -126 -61 -235 -66 -243 -10 -19 -7 -28 -64 190 -25 96 -53 199 -61 228
l-15 52 -69 0 c-57 0 -74 -4 -90 -20z"/>
<path d="M12992 1807 c-22 -23 -22 -29 -22 -315 l0 -292 60 0 60 0 2 222 3
222 130 -219 130 -220 68 -3 67 -3 0 316 0 315 -60 0 -60 0 0 -221 c0 -124 -4
-218 -9 -215 -5 3 -66 103 -136 221 l-127 215 -42 0 c-31 0 -48 -6 -64 -23z"/>
<path d="M14567 1812 c-9 -10 -62 -146 -118 -302 -56 -157 -104 -291 -106
-297 -4 -10 12 -13 59 -13 l64 0 20 63 20 62 131 3 130 3 19 -66 19 -65 63 0
c47 0 63 3 60 13 -3 6 -53 148 -113 315 l-108 302 -62 0 c-47 0 -66 -4 -78
-18z m118 -242 c25 -74 43 -135 41 -137 -2 -2 -44 -2 -93 -1 l-89 3 44 139
c24 76 45 136 48 133 2 -2 25 -64 49 -137z"/>
<path d="M15100 1810 c-19 -19 -20 -33 -20 -315 l0 -295 60 0 60 0 2 221 3
220 130 -220 130 -221 63 0 62 0 0 315 0 315 -60 0 -60 0 0 -222 0 -223 -132
223 -132 222 -43 0 c-30 0 -49 -6 -63 -20z"/>
</g>
</svg>
