<?xml version="1.0" standalone="no"?>
<!DOCTYPE svg PUBLIC "-//W3C//DTD SVG 20010904//EN"
 "http://www.w3.org/TR/2001/REC-SVG-20010904/DTD/svg10.dtd">
<svg version="1.0" xmlns="http://www.w3.org/2000/svg"
 width="1104.000000pt" height="480.000000pt" viewBox="0 0 1104.000000 480.000000"
 preserveAspectRatio="xMidYMid meet">

<g transform="translate(0.000000,480.000000) scale(0.100000,-0.100000)"
fill="#000000" stroke="none">
<path d="M9623 3473 c-18 -7 -19 -1533 -1 -1551 15 -15 275 -17 298 -2 13 8
16 72 20 444 l5 435 500 -436 c275 -239 510 -442 523 -450 20 -14 24 -14 42 2
20 18 20 34 20 764 0 660 -2 749 -16 769 -14 21 -22 22 -153 22 -121 0 -140
-2 -154 -18 -15 -16 -17 -66 -19 -450 l-3 -431 -506 448 c-432 382 -531 466
-542 460 -1 0 -8 -3 -14 -6z"/>
<path d="M3372 3443 c-4 -10 -7 -351 -7 -759 0 -613 2 -744 14 -757 20 -25
292 -25 312 0 11 13 15 90 19 368 l5 351 223 -258 c191 -222 227 -258 251
-258 23 0 59 37 252 260 l224 261 3 -353 c2 -310 4 -354 19 -370 14 -16 33
-18 154 -18 112 0 141 3 153 16 14 14 16 97 16 763 0 776 0 771 -40 771 -9 0
-187 -192 -396 -429 -208 -236 -382 -429 -386 -428 -4 1 -157 171 -339 377
-182 206 -354 399 -381 428 -52 54 -83 65 -96 35z"/>
<path d="M1528 3299 c-23 -13 -24 -65 -2 -77 13 -7 5 -13 -36 -28 -67 -24
-144 -92 -177 -158 -56 -110 -38 -260 43 -355 37 -43 126 -101 156 -101 44 0
18 -21 -84 -66 -120 -53 -235 -119 -282 -162 -64 -60 -87 -184 -51 -282 9 -25
12 -46 7 -48 -5 -1 -74 -40 -153 -85 l-144 -82 -138 0 c-147 0 -157 -3 -157
-52 0 -22 36 -57 71 -68 10 -4 19 -11 19 -18 0 -6 -31 -42 -70 -80 -38 -38
-70 -73 -70 -79 0 -25 23 -48 48 -48 37 0 170 73 278 152 106 77 160 109 234
138 65 25 62 22 -50 -55 -132 -91 -226 -169 -342 -288 -82 -82 -108 -115 -108
-135 0 -35 187 -220 295 -291 109 -72 241 -134 269 -127 18 4 45 52 125 220
l103 214 42 -32 c69 -52 179 -94 204 -78 19 13 31 76 32 165 0 42 3 77 8 77 4
0 70 -119 146 -263 160 -300 170 -317 198 -317 29 0 192 79 275 132 134 87
303 252 303 296 0 21 -193 210 -313 306 -182 146 -369 260 -498 305 l-33 11
52 46 c29 25 65 65 81 87 45 66 151 272 151 293 0 11 23 42 51 69 61 60 396
437 426 480 24 35 83 197 83 229 0 57 -57 62 -96 9 -56 -76 -119 -133 -148
-133 -3 0 -14 17 -23 38 -13 27 -25 38 -44 40 -51 6 -60 -35 -45 -193 l7 -70
-165 -97 c-90 -54 -167 -98 -170 -98 -14 0 -4 24 24 58 39 49 61 114 63 188 1
37 8 68 17 79 10 12 15 41 15 89 0 57 -5 80 -25 116 -31 55 -96 105 -162 125
-58 17 -214 20 -240 4z m230 -54 c93 -28 151 -102 152 -193 l0 -43 -78 80
c-66 68 -93 87 -172 125 l-95 46 71 0 c39 0 93 -7 122 -15z m-51 -101 c77 -28
163 -137 163 -207 l0 -27 -117 0 c-87 0 -142 -5 -209 -21 l-90 -22 -62 24
c-71 27 -74 36 -41 109 61 136 209 196 356 144z m739 -86 c-47 -126 -35 -110
-329 -441 -110 -123 -170 -182 -195 -193 -107 -45 -255 -104 -258 -102 -4 5
119 185 158 230 24 30 92 77 218 153 l182 109 -6 71 c-3 38 -8 90 -11 115 -6
45 -6 45 10 18 26 -46 48 -52 103 -28 53 24 94 59 124 108 30 49 32 33 4 -40z
m-1050 -212 l60 -24 93 24 c73 19 119 24 213 24 l120 0 -7 -32 c-36 -170 -222
-269 -382 -203 -75 31 -163 145 -163 210 0 14 1 25 3 25 2 0 30 -11 63 -24z
m-47 -837 c28 -6 78 -29 113 -52 l63 -42 -155 -7 c-244 -11 -420 -66 -576
-181 -86 -63 -199 -135 -239 -151 -33 -14 -32 -13 20 40 30 29 61 67 69 83 14
27 14 29 -12 53 -15 14 -38 32 -52 41 -23 16 -18 17 109 17 l133 0 102 59
c145 84 219 120 279 136 65 17 83 18 146 4z m387 -147 c49 -21 113 -52 143
-69 l53 -31 -61 -59 c-67 -66 -156 -114 -256 -140 l-63 -17 -6 -59 c-3 -33 -6
-86 -6 -118 0 -64 -7 -89 -24 -89 -31 0 -124 56 -176 106 -51 49 -278 360
-269 368 2 2 40 23 85 48 79 44 83 45 195 51 63 4 148 15 189 26 41 10 82 19
91 20 8 1 56 -16 105 -37z"/>
<path d="M5727 3018 c-180 -326 -568 -1072 -565 -1086 3 -15 18 -17 122 -20
82 -2 123 1 133 10 8 6 32 47 54 90 l39 78 272 -2 272 -3 44 -80 c25 -44 49
-83 56 -87 6 -4 61 -8 122 -8 85 0 114 3 124 14 9 12 -43 118 -285 573 -163
307 -302 564 -307 571 -23 27 -47 12 -81 -50z m203 -714 c0 -2 -65 -4 -145 -4
-80 0 -145 4 -145 9 0 4 32 75 71 157 l70 148 75 -153 c41 -85 74 -155 74
-157z"/>
<path d="M6532 3072 c-10 -7 -12 -130 -10 -583 l3 -574 315 0 c303 0 318 1
385 23 147 49 253 135 318 259 52 100 70 179 70 308 -1 183 -52 306 -177 422
-72 68 -169 118 -264 138 -74 16 -616 21 -640 7z m593 -226 c73 -19 108 -40
152 -90 58 -65 78 -136 77 -266 0 -156 -36 -242 -126 -303 -70 -46 -125 -57
-300 -57 l-158 0 0 365 0 365 153 0 c94 0 171 -5 202 -14z"/>
<path d="M7812 3068 c-17 -17 -17 -1129 0 -1146 16 -16 210 -16 226 0 17 17
17 1129 0 1146 -8 8 -48 12 -113 12 -65 0 -105 -4 -113 -12z"/>
<path d="M8301 3066 c-9 -11 -11 -115 -9 -408 4 -378 5 -395 26 -453 59 -158
173 -257 343 -301 93 -24 292 -16 374 16 128 49 227 145 277 268 22 56 23 67
26 460 2 299 0 407 -9 418 -15 18 -209 20 -227 2 -9 -9 -12 -106 -12 -373 0
-404 -3 -430 -64 -502 -93 -108 -298 -116 -401 -16 -21 20 -47 57 -59 82 -20
44 -21 64 -24 421 -2 241 -7 379 -14 387 -16 19 -212 18 -227 -1z"/>
</g>
</svg>
