<?xml version="1.0" standalone="no"?>
<!DOCTYPE svg PUBLIC "-//W3C//DTD SVG 20010904//EN"
 "http://www.w3.org/TR/2001/REC-SVG-20010904/DTD/svg10.dtd">
<svg version="1.0" xmlns="http://www.w3.org/2000/svg"
 width="1104.000000pt" height="479.000000pt" viewBox="0 0 1104.000000 479.000000"
 preserveAspectRatio="xMidYMid meet">

<g transform="translate(0.000000,479.000000) scale(0.100000,-0.100000)"
fill="#E02828" stroke="none">
<path d="M1846 4694 c-285 -204 -395 -323 -527 -568 l-52 -98 6 -112 c6 -126
44 -284 106 -449 111 -297 289 -561 491 -731 l76 -65 70 25 c130 48 282 131
363 200 2 2 -25 34 -59 71 -220 239 -351 495 -422 823 -20 92 -22 134 -22 345
-1 259 10 339 70 548 14 49 24 90 22 92 -2 2 -57 -34 -122 -81z"/>
<path d="M1130 4382 c-334 -314 -554 -663 -640 -1013 -55 -225 -60 -408 -19
-625 147 -771 952 -1288 1696 -1089 259 69 473 195 679 400 99 98 270 303 260
312 -1 1 -29 -4 -61 -12 -103 -24 -275 -38 -387 -32 -312 18 -597 137 -837
350 -284 252 -499 640 -586 1057 -46 221 -46 502 1 688 9 35 14 65 12 67 -2 2
-55 -44 -118 -103z"/>
<path d="M3253 3639 c-58 -7 -116 -39 -140 -75 -13 -20 -24 -24 -63 -24 -27 0
-75 -8 -108 -18 -120 -38 -193 -112 -257 -261 -80 -188 -143 -296 -213 -366
-104 -104 -240 -187 -401 -246 l-64 -23 29 -23 c16 -13 59 -39 96 -58 271
-143 643 -184 926 -103 l73 21 39 66 c53 88 85 170 104 263 21 102 20 169 -5
346 -33 232 -15 308 98 412 60 55 63 59 44 70 -34 18 -103 26 -158 19z"/>
<path d="M3480 3015 c0 -481 -243 -965 -637 -1268 -441 -339 -1029 -430 -1555
-241 -257 93 -527 283 -698 492 l-74 92 -253 0 c-139 0 -253 -2 -253 -4 0 -14
506 -947 529 -976 68 -85 191 -142 336 -155 39 -3 567 1 1175 9 1198 16 1175
14 1262 71 49 33 94 82 112 124 9 20 140 464 291 986 152 523 278 958 281 968
5 16 -12 17 -255 17 l-261 0 0 -115z"/>
<path d="M4550 1965 l0 -1035 155 0 155 0 0 745 c0 410 3 745 8 745 4 0 236
-336 516 -745 l509 -745 133 0 134 0 0 1035 0 1035 -155 0 -155 0 -2 -737 -3
-738 -503 738 -503 737 -145 0 -144 0 0 -1035z"/>
<path d="M8110 1965 l0 -1035 155 0 155 0 0 489 c0 396 3 491 13 500 11 9 91
-91 393 -489 l378 -500 189 0 c150 0 187 3 180 13 -5 6 -215 281 -467 609
l-457 598 370 420 c204 231 371 422 371 425 0 3 -87 5 -194 5 l-194 0 -288
-326 -289 -325 -3 325 -2 326 -155 0 -155 0 0 -1035z"/>
<path d="M6480 1833 c0 -472 4 -506 62 -615 41 -77 149 -178 238 -223 146 -73
376 -98 550 -60 223 50 395 201 445 390 12 49 15 136 15 497 l0 438 -155 0
-155 0 0 -416 c0 -293 -4 -428 -12 -456 -18 -60 -88 -132 -166 -170 -60 -30
-75 -33 -157 -33 -151 0 -260 57 -320 165 l-30 55 -3 428 -3 427 -155 0 -154
0 0 -427z"/>
<path d="M9720 1832 c0 -464 2 -488 57 -602 42 -87 150 -189 253 -238 113 -53
207 -73 350 -73 141 -1 237 19 345 71 142 68 243 181 285 318 19 60 20 93 20
508 l0 444 -155 0 -155 0 0 -425 c0 -490 2 -476 -96 -563 -72 -64 -136 -87
-244 -87 -148 0 -259 60 -315 170 l-30 59 -3 423 -3 423 -155 0 -154 0 0 -428z"/>
<path d="M833 795 c-77 -21 -126 -49 -180 -103 -195 -196 -137 -527 113 -644
223 -104 475 11 553 254 l13 38 567 0 567 0 17 -53 c74 -234 344 -344 568
-231 67 33 137 109 173 184 29 60 31 73 31 170 0 97 -2 110 -31 170 -92 190
-307 276 -505 201 -109 -41 -209 -148 -239 -255 l-13 -46 -568 0 -567 0 -13
38 c-69 215 -276 333 -486 277z"/>
<path d="M4560 390 l0 -290 35 0 35 0 2 210 3 211 120 -208 c115 -197 122
-208 153 -211 l32 -3 0 290 0 291 -35 0 -35 0 0 -207 c-1 -166 -3 -205 -13
-192 -7 9 -61 102 -122 208 -107 186 -111 191 -142 191 l-33 0 0 -290z"/>
<path d="M10050 390 l0 -290 35 0 35 0 0 140 c0 77 4 140 8 140 4 0 48 -63 97
-140 l90 -140 42 0 43 0 -23 37 c-13 21 -63 98 -111 171 -47 73 -86 135 -86
138 0 4 102 142 163 222 7 9 -1 12 -36 12 l-45 0 -68 -92 -69 -92 -3 92 -3 92
-34 0 -35 0 0 -290z"/>
<path d="M7758 543 l-3 -68 -32 -3 c-30 -3 -33 -6 -33 -38 0 -32 2 -34 35 -34
l35 0 0 -150 0 -150 35 0 35 0 0 150 0 150 35 0 c33 0 35 2 35 34 0 32 -3 35
-32 38 l-33 3 -3 68 -3 67 -34 0 -34 0 -3 -67z"/>
<path d="M6485 477 c-80 -45 -120 -144 -96 -235 13 -47 60 -106 100 -126 66
-34 151 -27 205 15 l26 20 0 -25 c0 -23 4 -26 35 -26 l35 0 0 185 0 185 -35 0
c-19 0 -35 -4 -35 -9 0 -6 -19 1 -42 14 -57 33 -137 34 -193 2z m173 -67 c59
-36 78 -118 42 -177 -26 -44 -63 -66 -110 -66 -80 0 -149 75 -136 148 8 38 48
92 80 105 37 15 90 11 124 -10z"/>
<path d="M8295 486 c-38 -17 -90 -72 -104 -109 -18 -47 -13 -126 10 -175 52
-107 207 -142 291 -65 17 15 18 14 18 -10 0 -24 4 -27 35 -27 l35 0 0 185 0
185 -35 0 c-19 0 -35 -4 -35 -10 0 -5 -16 2 -36 15 -42 29 -128 34 -179 11z
m182 -100 c28 -30 33 -43 33 -84 0 -68 -33 -112 -97 -131 -74 -21 -151 33
-160 112 -10 88 52 152 141 144 42 -4 55 -10 83 -41z"/>
<path d="M9439 477 c-94 -50 -131 -176 -81 -274 55 -107 196 -142 286 -72 l26
20 0 -25 c0 -23 4 -26 35 -26 l35 0 0 185 0 185 -35 0 c-19 0 -35 -5 -35 -10
0 -6 -17 1 -37 15 -51 34 -131 35 -194 2z m168 -67 c96 -58 75 -209 -34 -239
-92 -26 -183 63 -162 157 8 37 42 79 74 92 35 15 89 11 122 -10z"/>
<path d="M7195 465 c-17 -16 -25 -20 -25 -10 0 10 -11 15 -35 15 l-35 0 0
-185 0 -185 35 0 35 0 0 144 c0 138 1 146 22 160 30 22 81 20 109 -3 23 -18
24 -26 27 -160 l4 -141 34 0 34 0 0 138 c-1 197 -29 252 -133 252 -38 0 -53
-5 -72 -25z"/>
<path d="M5915 455 c-19 -18 -25 -35 -25 -67 1 -50 9 -63 71 -105 64 -44 74
-58 61 -87 -14 -32 -49 -39 -73 -15 -15 15 -28 18 -54 13 -34 -6 -34 -6 -20
-34 22 -42 53 -60 106 -60 57 0 94 26 108 77 19 68 -2 110 -80 159 -45 28 -57
48 -39 69 9 10 17 11 34 4 14 -7 31 -7 49 0 24 9 26 14 17 31 -25 47 -115 56
-155 15z"/>
<path d="M9008 462 c-16 -9 -28 -20 -28 -24 0 -5 -4 -8 -10 -8 -5 0 -10 9 -10
20 0 16 -7 20 -35 20 l-35 0 0 -185 0 -185 34 0 34 0 4 114 c3 128 16 157 76
186 26 12 32 21 32 48 0 37 -18 42 -62 14z"/>
<path d="M5250 343 c0 -146 11 -182 69 -220 73 -49 184 -21 223 57 14 28 18
61 18 163 l0 127 -35 0 -35 0 0 -125 c0 -120 -1 -127 -25 -150 -27 -27 -79
-33 -106 -12 -32 24 -39 56 -39 171 l0 116 -35 0 -35 0 0 -127z"/>
<path d="M10670 338 c0 -115 3 -137 20 -166 28 -46 76 -72 133 -72 58 0 98 19
129 62 21 30 23 46 26 171 l4 137 -36 0 -36 0 0 -119 c0 -114 -1 -121 -26
-150 -33 -40 -83 -43 -119 -6 -24 23 -25 30 -25 150 l0 125 -35 0 -35 0 0
-132z"/>
</g>
</svg>
