<?xml version="1.0" standalone="no"?>
<!DOCTYPE svg PUBLIC "-//W3C//DTD SVG 20010904//EN"
 "http://www.w3.org/TR/2001/REC-SVG-20010904/DTD/svg10.dtd">
<svg version="1.0" xmlns="http://www.w3.org/2000/svg"
 width="1104.000000pt" height="479.000000pt" viewBox="0 0 1104.000000 479.000000"
 preserveAspectRatio="xMidYMid meet">

<g transform="translate(0.000000,479.000000) scale(0.100000,-0.100000)"
fill="#000000" stroke="none">
<path d="M940 3762 c-327 -327 -621 -624 -653 -661 -177 -200 -262 -399 -276
-644 -16 -280 47 -517 198 -740 52 -78 218 -259 254 -279 17 -9 30 0 95 65
l75 75 -95 91 c-181 173 -279 366 -308 604 -25 212 25 411 150 597 28 42 239
260 600 620 l558 556 539 -537 c297 -295 563 -568 592 -605 65 -86 135 -228
155 -314 24 -99 30 -233 17 -334 -34 -250 -149 -455 -360 -640 l-43 -38 73
-74 c40 -41 78 -74 82 -74 18 0 129 104 186 174 218 267 315 568 283 879 -25
236 -90 389 -246 582 -35 44 -338 353 -673 686 l-608 606 -595 -595z"/>
<path d="M5186 2475 c-55 -19 -87 -45 -113 -91 -35 -61 -33 -64 53 -64 61 0
81 4 101 20 19 15 41 20 82 20 71 0 105 -17 109 -53 5 -39 -12 -54 -71 -66
-184 -37 -207 -43 -245 -71 -53 -38 -76 -98 -70 -180 7 -102 79 -167 198 -177
109 -10 227 25 281 84 57 61 64 85 67 263 2 101 0 179 -7 201 -15 49 -68 94
-133 114 -64 19 -199 19 -252 0z m240 -377 c-7 -75 -31 -117 -76 -140 -39 -20
-101 -23 -130 -8 -10 5 -23 25 -29 43 -14 42 -2 80 31 99 20 11 177 63 202 67
5 0 6 -26 2 -61z"/>
<path d="M6117 2475 c-126 -41 -183 -191 -112 -292 27 -39 97 -71 204 -97 141
-33 185 -69 147 -121 -11 -16 -28 -20 -88 -23 -88 -4 -135 18 -145 68 l-5 30
-85 0 c-75 0 -84 -2 -80 -17 3 -10 8 -34 11 -53 14 -84 105 -146 231 -157 185
-15 314 52 333 174 21 131 -35 189 -231 237 -149 37 -188 68 -147 119 16 19
28 22 85 22 66 0 68 -1 102 -40 33 -38 37 -40 105 -43 l71 -4 -6 38 c-9 57
-54 114 -112 142 -63 32 -204 40 -278 17z"/>
<path d="M9700 2481 c-74 -24 -125 -73 -145 -138 -6 -22 -4 -23 70 -23 62 0
82 4 102 20 20 15 41 20 90 20 54 0 68 -4 88 -24 19 -20 23 -30 16 -48 -11
-32 -40 -44 -151 -63 -167 -28 -240 -92 -240 -209 0 -156 137 -236 332 -195
107 23 176 77 204 161 12 37 15 83 12 220 -3 161 -5 175 -26 205 -38 54 -100
76 -221 80 -58 1 -117 -1 -131 -6z m227 -387 c-6 -76 -25 -110 -78 -136 -40
-21 -107 -23 -132 -4 -41 32 -36 121 9 141 22 10 185 62 198 64 5 0 6 -29 3
-65z"/>
<path d="M10655 2481 c-43 -11 -87 -36 -111 -63 -59 -64 -74 -145 -74 -410 l0
-188 85 0 85 0 0 239 0 239 31 26 c43 36 125 37 166 2 l28 -24 5 -216 c5 -205
6 -217 27 -237 16 -16 38 -24 77 -27 l56 -4 0 241 c0 262 -6 296 -59 354 -47
52 -97 70 -196 73 -49 2 -103 0 -120 -5z"/>
<path d="M6922 2233 c4 -271 8 -294 64 -347 57 -52 111 -70 209 -70 73 0 100
4 140 22 123 56 135 93 135 409 l0 233 -58 0 c-91 0 -90 4 -94 -255 -4 -235
-7 -252 -55 -274 -30 -14 -108 -14 -134 -1 -44 24 -49 55 -49 300 l0 230 -81
0 -81 0 4 -247z"/>
<path d="M8067 2466 c-59 -16 -124 -60 -154 -105 -45 -66 -53 -120 -53 -338
l0 -203 80 0 80 0 0 198 c0 173 2 202 19 232 22 43 55 60 126 67 l55 6 0 78 0
79 -52 -1 c-29 0 -75 -6 -101 -13z"/>
<path d="M8610 2241 c0 -151 4 -250 11 -272 44 -129 204 -190 370 -139 84 25
130 64 150 125 8 26 14 125 16 283 l5 242 -59 0 c-100 0 -97 7 -103 -252 -5
-231 -10 -256 -50 -278 -25 -13 -103 -13 -133 1 -46 21 -51 48 -55 297 l-4
232 -74 0 -74 0 0 -239z"/>
<path d="M945 1666 c-40 -19 -531 -513 -545 -549 -14 -39 -13 -92 4 -130 18
-41 511 -532 549 -546 36 -14 88 -14 124 0 15 5 126 108 246 227 l217 217 218
-217 c119 -119 227 -221 239 -227 30 -15 99 -14 131 3 15 8 142 131 284 273
214 216 258 265 267 298 22 84 13 96 -267 378 -142 142 -269 265 -284 273 -15
8 -47 14 -71 14 -59 0 -109 -34 -237 -164 l-105 -106 222 -222 223 -223 45 45
45 44 -142 144 -143 143 30 25 c19 15 43 24 64 24 31 0 50 -15 183 -147 199
-198 199 -176 0 -375 -158 -158 -170 -165 -230 -134 -15 8 -128 116 -252 240
l-224 226 -242 -240 c-231 -231 -242 -240 -279 -240 -37 0 -47 8 -187 148
-140 140 -148 150 -148 187 0 37 8 47 148 187 134 134 151 148 182 148 22 0
46 -9 65 -24 l30 -25 -143 -143 -142 -144 48 -47 47 -47 223 223 222 223 -128
126 c-70 70 -140 132 -155 137 -38 15 -96 13 -132 -3z"/>
</g>
</svg>
