<?xml version="1.0" standalone="no"?>
<!DOCTYPE svg PUBLIC "-//W3C//DTD SVG 20010904//EN"
 "http://www.w3.org/TR/2001/REC-SVG-20010904/DTD/svg10.dtd">
<svg version="1.0" xmlns="http://www.w3.org/2000/svg"
 width="1104.000000pt" height="479.000000pt" viewBox="0 0 1104.000000 479.000000"
 preserveAspectRatio="xMidYMid meet">

<g transform="translate(0.000000,479.000000) scale(0.100000,-0.100000)"
fill="#000000" stroke="none">
<path d="M1910 4024 c-36 -18 -155 -76 -265 -127 -175 -83 -205 -94 -241 -90
-56 6 -79 -8 -115 -72 -55 -97 -62 -94 -54 23 l8 102 -24 0 c-34 0 -120 -43
-148 -73 -26 -28 -30 -59 -16 -122 l8 -40 -60 52 c-77 67 -86 78 -85 107 0 21
-4 23 -32 16 -56 -13 -97 -40 -112 -75 -18 -43 -7 -75 44 -130 21 -22 49 -53
62 -68 l25 -29 -45 20 c-25 12 -77 30 -117 42 -76 22 -130 58 -135 91 -3 20
-5 19 -44 -9 -78 -57 -94 -145 -34 -195 24 -20 183 -87 208 -87 12 0 67 -48
62 -54 -4 -3 -28 6 -55 19 -57 29 -124 32 -230 10 -96 -21 -119 -19 -153 10
l-30 25 -10 -46 c-22 -104 32 -166 173 -193 72 -15 153 -40 159 -50 3 -4 -23
-5 -57 -3 -51 3 -82 -3 -177 -34 -125 -40 -183 -47 -223 -25 -15 8 -30 11 -34
7 -16 -15 -15 -123 1 -154 38 -74 156 -87 323 -38 51 15 103 26 115 24 17 -3
8 -8 -32 -20 -73 -23 -129 -60 -224 -149 -73 -68 -82 -74 -123 -74 -49 0 -53
-10 -28 -72 21 -50 57 -75 116 -81 59 -6 135 27 222 96 102 81 144 96 183 67
18 -14 18 -14 -9 -15 -76 -1 -120 -43 -181 -171 -40 -87 -86 -133 -146 -149
-25 -7 -40 -17 -40 -26 0 -26 54 -72 99 -84 88 -23 160 13 252 128 75 94 95
111 129 112 l24 0 -22 -16 c-33 -23 -49 -61 -67 -160 -9 -49 -25 -107 -35
-130 -17 -39 -74 -94 -98 -94 -23 0 -12 -20 20 -36 38 -20 98 -14 166 16 60
27 84 49 143 137 43 63 73 93 94 93 3 0 -10 -14 -29 -30 -48 -43 -66 -88 -77
-198 -10 -93 -35 -162 -60 -162 -17 0 -9 -19 10 -25 47 -15 120 42 156 121 26
58 76 119 116 140 41 21 41 19 4 -37 -43 -62 -53 -101 -65 -233 -10 -117 -30
-176 -70 -210 l-29 -24 137 -98 c408 -294 584 -476 637 -659 l21 -75 62 127
c282 588 292 962 32 1224 -93 94 -147 130 -385 259 -104 56 -217 122 -250 145
-206 147 -292 321 -270 550 4 42 9 74 12 72 2 -3 11 -31 19 -63 22 -80 65
-162 111 -206 21 -20 89 -63 152 -95 136 -69 153 -89 210 -246 22 -60 50 -120
62 -133 55 -58 157 -54 201 9 20 28 23 44 23 122 0 50 -4 100 -8 113 -8 22 -6
21 35 -8 86 -60 254 -84 333 -48 61 28 85 127 49 203 -10 22 -75 96 -144 165
-172 171 -185 197 -255 515 -10 44 -25 97 -34 118 l-17 39 66 67 c46 46 77 89
102 141 46 95 80 196 76 225 -3 23 -3 23 -68 -11z m-323 -527 c13 -22 43 -45
89 -69 80 -42 99 -61 108 -104 12 -57 -26 -119 -96 -155 l-36 -19 -32 68 c-56
118 -70 162 -70 215 0 47 8 97 15 97 2 0 12 -15 22 -33z"/>
<path d="M952 3980 c-381 -48 -740 -358 -881 -762 -76 -220 -90 -501 -35 -716
55 -211 219 -423 564 -725 202 -177 330 -256 330 -202 0 8 20 37 44 64 34 38
46 61 52 96 8 55 3 62 -29 40 -41 -26 -87 -36 -127 -25 -78 21 -98 89 -42 140
18 16 32 36 32 44 0 12 -8 11 -47 -6 -65 -29 -166 -30 -213 -2 -79 46 -84 116
-13 153 40 20 66 45 76 74 7 19 -8 24 -19 6 -15 -24 -100 -52 -160 -52 -49 0
-73 6 -114 29 -62 34 -91 72 -98 129 -5 52 16 79 74 89 39 6 94 40 83 51 -4 3
-18 1 -33 -5 -44 -16 -123 -12 -165 10 -101 51 -155 197 -96 256 22 22 32 25
64 19 32 -5 43 -2 66 17 l27 24 -60 17 c-101 28 -152 98 -152 206 0 65 32 140
66 152 13 4 37 0 65 -12 38 -17 49 -18 91 -8 59 14 65 22 31 40 -15 8 -39 34
-55 58 -23 37 -28 55 -27 105 1 76 18 124 52 149 22 17 30 18 56 7 17 -7 33
-21 36 -31 6 -18 53 -28 67 -14 3 3 -6 26 -18 52 -31 60 -30 99 4 163 27 54
98 114 148 126 33 8 71 -18 79 -56 10 -45 22 -36 23 15 1 25 9 58 17 73 25 41
86 80 155 98 56 14 63 14 85 0 14 -9 27 -27 31 -40 5 -23 7 -23 50 20 77 74
210 108 254 64 11 -11 20 -24 20 -29 0 -13 142 0 174 17 l30 14 -25 14 c-14 7
-63 22 -110 34 -97 25 -307 35 -427 20z"/>
<path d="M1960 3691 c-42 -12 -66 -27 -98 -63 l-43 -47 19 -62 19 -63 57 54
c51 48 109 131 129 183 8 21 -7 21 -83 -2z"/>
<path d="M3761 2784 c-276 -74 -430 -328 -366 -603 59 -248 322 -413 598 -373
155 22 309 122 382 246 83 142 86 330 8 483 -55 110 -190 212 -329 248 -73 19
-221 19 -293 -1z m277 -223 c42 -21 93 -74 115 -119 22 -42 29 -81 28 -152 -1
-153 -122 -280 -267 -280 -147 0 -276 132 -277 284 0 81 16 136 56 188 82 108
225 140 345 79z"/>
<path d="M5277 2782 c-15 -17 -17 -55 -17 -346 0 -180 -4 -325 -8 -322 -5 3
-75 156 -157 340 l-149 336 -176 0 c-124 0 -180 -4 -188 -12 -9 -9 -12 -128
-12 -473 0 -435 1 -463 18 -478 15 -13 39 -17 113 -17 61 0 99 4 107 12 9 9
12 99 12 345 0 183 4 333 8 333 4 0 77 -155 161 -345 l153 -345 172 0 c120 0
176 4 184 12 17 17 17 949 0 966 -8 8 -47 12 -108 12 -81 0 -100 -3 -113 -18z"/>
<path d="M6028 2784 c-84 -20 -168 -66 -237 -130 -211 -195 -193 -562 36 -735
174 -131 394 -154 588 -61 114 55 185 123 238 230 l42 85 0 131 c0 131 0 131
-37 209 -26 54 -55 95 -94 133 -62 61 -180 125 -262 143 -70 15 -203 13 -274
-5z m292 -235 c238 -162 116 -560 -165 -537 -99 8 -180 66 -226 163 -47 98
-37 214 27 307 78 112 251 144 364 67z"/>
<path d="M8166 2784 c-117 -28 -243 -116 -306 -214 -51 -79 -73 -160 -72 -270
0 -152 45 -254 154 -355 130 -121 311 -168 492 -130 176 37 327 162 381 315
24 67 33 166 24 245 -24 193 -181 363 -380 410 -79 18 -215 18 -293 -1z m273
-218 c123 -64 183 -232 131 -370 -109 -288 -508 -221 -528 89 -11 189 139 332
320 304 25 -4 60 -15 77 -23z"/>
<path d="M9325 2786 c-185 -43 -335 -174 -386 -337 -23 -73 -25 -219 -5 -294
61 -228 261 -371 490 -351 69 6 156 37 177 62 18 22 39 17 39 -9 0 -40 18 -47
121 -47 70 0 100 4 108 14 8 9 11 91 9 277 l-3 264 -210 0 -210 0 -3 -74 c-2
-53 1 -77 10 -82 7 -5 48 -9 91 -9 l77 0 0 -74 0 -74 -47 -19 c-68 -26 -193
-24 -253 3 -91 42 -145 121 -156 231 -15 144 70 273 208 314 57 17 187 11 273
-12 89 -24 135 -33 136 -28 0 2 6 46 13 97 15 109 13 112 -79 137 -83 23 -321
29 -400 11z"/>
<path d="M10361 2784 c-132 -35 -266 -135 -323 -240 -77 -142 -77 -334 0 -478
67 -127 226 -233 385 -258 234 -36 470 79 563 276 141 296 -18 625 -338 701
-79 18 -216 18 -287 -1z m265 -218 c62 -29 118 -92 140 -159 22 -66 15 -186
-14 -243 -45 -87 -145 -154 -234 -154 -246 0 -374 305 -207 495 74 84 209 110
315 61z"/>
<path d="M2502 2778 c-9 -9 -12 -128 -12 -474 0 -407 2 -464 16 -478 20 -20
203 -23 222 -4 8 8 12 54 12 140 l0 128 123 0 c182 0 267 24 348 97 80 72 117
197 98 328 -19 140 -107 231 -251 265 -64 14 -541 13 -556 -2z m503 -198 c70
-36 98 -143 57 -220 -31 -57 -79 -74 -207 -75 l-110 0 -3 158 -3 159 118 -4
c79 -2 128 -8 148 -18z"/>
<path d="M6837 2784 c-4 -4 -7 -219 -7 -479 0 -353 3 -474 12 -483 16 -16 200
-16 216 0 8 8 12 54 12 140 l0 128 89 0 90 0 87 -140 86 -141 131 3 c110 3
132 6 135 19 1 8 -41 80 -94 159 l-97 143 29 21 c49 35 96 88 117 135 17 38
21 66 22 156 0 103 -2 114 -30 170 -33 67 -91 117 -172 150 -43 17 -79 20
-333 23 -157 2 -289 0 -293 -4z m530 -207 c45 -24 67 -70 67 -140 -1 -66 -20
-100 -74 -131 -28 -17 -53 -20 -159 -20 l-126 -1 -3 158 -3 159 133 -4 c102
-3 141 -8 165 -21z"/>
</g>
</svg>
